<svg width="1055" height="394" viewBox="0 0 1055 394" fill="none" xmlns="http://www.w3.org/2000/svg">
<path d="M0.388395 387V0.243248H49.8573V199.524C50.9816 193.715 55.3851 186.876 63.0677 179.006C70.7504 171.136 81.0564 164.296 93.9858 158.487C106.915 152.491 121.812 149.493 138.676 149.493C160.225 149.493 179.338 154.646 196.015 164.952C212.692 175.071 225.809 189.312 235.366 207.675C245.109 225.851 249.981 247.213 249.981 271.76C249.981 296.307 245.109 317.762 235.366 336.126C225.809 354.302 212.692 368.449 196.015 378.568C179.338 388.686 160.225 393.746 138.676 393.746C122.749 393.746 108.321 390.748 95.3911 384.751C82.6492 378.755 72.2495 371.728 64.192 363.671C56.1346 355.613 51.0753 348.399 49.0141 342.028V387H0.388395ZM201.356 271.76C201.356 255.083 197.983 240.655 191.237 228.475C184.491 216.295 175.497 206.832 164.254 200.086C153.199 193.341 141.019 189.968 127.715 189.968C113.286 189.968 100.169 193.434 88.3643 200.367C76.5592 207.113 67.1901 216.67 60.257 229.037C53.3239 241.217 49.8573 255.458 49.8573 271.76C49.8573 288.062 53.3239 302.397 60.257 314.764C67.1901 326.944 76.5592 336.407 88.3643 343.153C100.169 349.898 113.286 353.271 127.715 353.271C141.019 353.271 153.199 349.992 164.254 343.434C175.497 336.688 184.491 327.225 191.237 315.045C197.983 302.865 201.356 288.437 201.356 271.76ZM410.145 149.493C425.323 149.493 440.032 152.679 454.273 159.05C468.702 165.421 480.507 175.539 489.689 189.406C499.058 203.084 503.742 220.979 503.742 243.091V387H454.273V252.647C454.273 229.786 449.027 213.203 438.533 202.897C428.227 192.404 414.642 187.157 397.778 187.157C386.535 187.157 375.76 190.342 365.454 196.713C355.148 202.897 346.622 211.517 339.877 222.572C333.318 233.44 330.039 245.808 330.039 259.674V387H280.57V0.243248H330.039V197.276C331.725 190.905 336.223 183.971 343.53 176.476C351.026 168.981 360.582 162.61 372.2 157.363C383.818 152.116 396.466 149.493 410.145 149.493ZM605.267 393.746C594.961 393.746 586.06 390.092 578.565 382.784C571.257 375.289 567.603 366.388 567.603 356.082C567.603 345.401 571.257 336.407 578.565 329.099C586.06 321.604 594.961 317.856 605.267 317.856C615.948 317.856 624.942 321.604 632.25 329.099C639.558 336.407 643.212 345.401 643.212 356.082C643.212 366.388 639.558 375.289 632.25 382.784C624.942 390.092 615.948 393.746 605.267 393.746ZM895.655 387V342.028C894.156 346.713 889.752 353.178 882.444 361.422C875.324 369.667 865.486 377.162 852.932 383.908C840.565 390.467 825.949 393.746 809.084 393.746C787.723 393.746 768.329 388.686 750.902 378.568C733.663 368.449 719.89 354.302 709.584 336.126C699.466 317.762 694.406 296.307 694.406 271.76C694.406 247.213 699.466 225.851 709.584 207.675C719.89 189.312 733.663 175.071 750.902 164.952C768.329 154.646 787.723 149.493 809.084 149.493C825.761 149.493 840.19 152.491 852.37 158.487C864.737 164.484 874.574 171.417 881.882 179.287C889.378 187.157 893.781 193.903 895.093 199.524V156.239H943.437V387H895.655ZM742.751 271.76C742.751 288.437 746.405 302.865 753.713 315.045C761.021 327.225 770.484 336.688 782.101 343.434C793.906 349.992 806.461 353.271 819.765 353.271C834.006 353.271 846.748 349.898 857.991 343.153C869.234 336.407 878.135 326.944 884.693 314.764C891.251 302.397 894.531 288.062 894.531 271.76C894.531 255.458 891.251 241.217 884.693 229.037C878.135 216.67 869.234 207.113 857.991 200.367C846.748 193.434 834.006 189.968 819.765 189.968C806.461 189.968 793.906 193.341 782.101 200.086C770.484 206.832 761.021 216.295 753.713 228.475C746.405 240.655 742.751 255.083 742.751 271.76ZM997.263 387V156.239H1046.17V387H997.263ZM1022.28 77.2573C1013.47 77.2573 1005.88 74.1655 999.511 67.9819C993.328 61.6109 990.236 54.0219 990.236 45.215C990.236 36.408 993.328 28.819 999.511 22.448C1005.88 16.077 1013.47 12.8915 1022.28 12.8915C1028.09 12.8915 1033.43 14.3906 1038.3 17.3887C1043.36 20.3868 1047.39 24.3219 1050.39 29.1938C1053.38 33.8784 1054.88 39.2187 1054.88 45.215C1054.88 54.0219 1051.7 61.6109 1045.33 67.9819C1038.96 74.1655 1031.27 77.2573 1022.28 77.2573Z" fill="url(#paint0_linear_54_753)"/>
<defs>
<linearGradient id="paint0_linear_54_753" x1="-118.471" y1="-6" x2="1000.08" y2="-6.74745" gradientUnits="userSpaceOnUse">
<stop stop-color="#E4FEFB"/>
<stop offset="0.131779" stop-color="#AAF8EF"/>
<stop offset="0.5" stop-color="#0BE7CF"/>
<stop offset="1" stop-color="#AA7BD8"/>
</linearGradient>
</defs>
</svg>
