<svg width="1459" height="268" viewBox="0 0 1459 268" fill="none" xmlns="http://www.w3.org/2000/svg">
<rect x="2.5" y="-2.5" width="1454" height="262.253" rx="131.127" transform="matrix(1 0 0 -1 0 262.254)" fill="url(#paint0_linear_47_435)"/>
<rect x="2.5" y="-2.5" width="1454" height="262.253" rx="131.127" transform="matrix(1 0 0 -1 0 262.254)" stroke="url(#paint1_linear_47_435)" stroke-width="5"/>
<path d="M395.822 182.303C386.614 182.303 378.568 180.21 371.684 176.025C364.801 171.839 359.452 165.979 355.639 158.444C351.825 150.91 349.918 142.12 349.918 132.074C349.918 122.121 351.872 113.331 355.778 105.703C359.685 98.076 365.22 92.1229 372.382 87.8441C379.637 83.4723 388.195 81.2863 398.055 81.2863C409.217 81.2863 418.519 83.9839 425.96 89.3789C433.401 94.7739 438.238 102.215 440.471 111.703H423.727C422.239 106.494 419.309 102.401 414.937 99.4247C410.566 96.4482 404.938 94.9599 398.055 94.9599C387.823 94.9599 379.777 98.262 373.917 104.866C368.057 111.47 365.127 120.586 365.127 132.213C365.127 143.841 368.01 152.91 373.777 159.421C379.544 165.932 387.218 169.188 396.799 169.188C406.473 169.188 413.728 166.444 418.565 160.956C423.495 155.468 426.378 148.166 427.216 139.05H400.706V127.609H442.145V180.629H428.611L427.355 166.258C424.1 171.374 420.007 175.327 415.077 178.117C410.147 180.908 403.729 182.303 395.822 182.303ZM491.907 182.303C485.116 182.303 479.07 180.815 473.768 177.838C468.559 174.769 464.467 170.537 461.49 165.142C458.513 159.747 457.025 153.468 457.025 146.305C457.025 139.05 458.467 132.678 461.35 127.19C464.327 121.702 468.42 117.424 473.629 114.354C478.931 111.284 485.07 109.75 492.046 109.75C498.836 109.75 504.743 111.284 509.766 114.354C514.789 117.331 518.696 121.33 521.486 126.353C524.277 131.376 525.672 136.911 525.672 142.957C525.672 143.887 525.625 144.91 525.532 146.026C525.532 147.05 525.486 148.212 525.393 149.515H471.536C472.001 156.212 474.187 161.328 478.094 164.862C482.093 168.304 486.698 170.025 491.907 170.025C496.092 170.025 499.581 169.095 502.371 167.234C505.255 165.281 507.394 162.677 508.789 159.421H523.579C521.719 165.932 517.998 171.374 512.417 175.745C506.929 180.117 500.092 182.303 491.907 182.303ZM491.907 121.888C486.977 121.888 482.605 123.377 478.791 126.353C474.978 129.237 472.652 133.609 471.815 139.469H510.882C510.603 134.074 508.696 129.795 505.162 126.632C501.627 123.47 497.209 121.888 491.907 121.888ZM568.268 180.629C561.478 180.629 556.082 179.001 552.083 175.745C548.083 172.397 546.083 166.49 546.083 158.026V123.842H534.223V111.424H546.083L547.897 93.8437H560.873V111.424H580.407V123.842H560.873V158.026C560.873 161.839 561.664 164.49 563.245 165.979C564.919 167.374 567.756 168.072 571.756 168.072H579.709V180.629H568.268ZM658.436 182.303C649.693 182.303 642.484 180.164 636.81 175.885C631.136 171.606 627.88 165.932 627.043 158.863H641.972C642.717 162.025 644.484 164.769 647.274 167.095C650.065 169.327 653.739 170.444 658.297 170.444C662.762 170.444 666.017 169.513 668.064 167.653C670.11 165.793 671.133 163.653 671.133 161.235C671.133 157.7 669.692 155.328 666.808 154.119C664.018 152.817 660.111 151.654 655.088 150.631C651.181 149.794 647.274 148.677 643.368 147.282C639.554 145.887 636.345 143.934 633.74 141.422C631.229 138.818 629.973 135.329 629.973 130.958C629.973 124.911 632.299 119.889 636.949 115.889C641.6 111.796 648.112 109.75 656.483 109.75C664.204 109.75 670.436 111.61 675.18 115.331C680.017 119.051 682.854 124.307 683.691 131.097H669.459C668.994 128.121 667.599 125.795 665.273 124.121C663.041 122.447 660.018 121.609 656.204 121.609C652.483 121.609 649.6 122.4 647.553 123.981C645.507 125.47 644.484 127.423 644.484 129.841C644.484 132.26 645.879 134.167 648.67 135.562C651.553 136.957 655.32 138.213 659.971 139.329C664.622 140.352 668.901 141.562 672.808 142.957C676.807 144.259 680.017 146.212 682.435 148.817C684.853 151.421 686.063 155.235 686.063 160.258C686.156 166.583 683.691 171.839 678.668 176.025C673.738 180.21 666.994 182.303 658.436 182.303ZM728.641 180.629C721.851 180.629 716.456 179.001 712.456 175.745C708.456 172.397 706.456 166.49 706.456 158.026V123.842H694.597V111.424H706.456L708.27 93.8437H721.246V111.424H740.78V123.842H721.246V158.026C721.246 161.839 722.037 164.49 723.618 165.979C725.292 167.374 728.129 168.072 732.129 168.072H740.082V180.629H728.641ZM779.47 182.303C773.61 182.303 768.773 181.327 764.959 179.373C761.145 177.42 758.308 174.862 756.448 171.699C754.588 168.444 753.658 164.909 753.658 161.095C753.658 154.398 756.262 149.096 761.471 145.189C766.68 141.283 774.121 139.329 783.795 139.329H801.934V138.073C801.934 132.678 800.445 128.632 797.469 125.935C794.585 123.237 790.818 121.888 786.167 121.888C782.074 121.888 778.493 122.912 775.424 124.958C772.447 126.911 770.633 129.841 769.982 133.748H755.192C755.657 128.725 757.332 124.446 760.215 120.912C763.192 117.284 766.913 114.54 771.377 112.68C775.935 110.726 780.912 109.75 786.307 109.75C795.98 109.75 803.468 112.308 808.77 117.424C814.072 122.447 816.723 129.33 816.723 138.073V180.629H803.887L802.631 168.769C800.678 172.583 797.841 175.792 794.12 178.396C790.399 181.001 785.516 182.303 779.47 182.303ZM782.4 170.304C786.4 170.304 789.748 169.374 792.446 167.513C795.236 165.56 797.376 163.002 798.864 159.84C800.445 156.677 801.422 153.189 801.794 149.375H785.33C779.47 149.375 775.284 150.398 772.773 152.445C770.354 154.491 769.145 157.049 769.145 160.119C769.145 163.281 770.308 165.793 772.633 167.653C775.052 169.42 778.307 170.304 782.4 170.304ZM833.968 180.629V111.424H847.223L848.479 124.539C850.897 119.982 854.246 116.4 858.524 113.796C862.896 111.098 868.152 109.75 874.291 109.75V125.237H870.245C866.152 125.237 862.478 125.935 859.222 127.33C856.06 128.632 853.502 130.911 851.548 134.167C849.688 137.329 848.758 141.748 848.758 147.422V180.629H833.968ZM915.993 180.629C909.203 180.629 903.808 179.001 899.808 175.745C895.808 172.397 893.808 166.49 893.808 158.026V123.842H881.949V111.424H893.808L895.622 93.8437H908.598V111.424H928.132V123.842H908.598V158.026C908.598 161.839 909.389 164.49 910.97 165.979C912.644 167.374 915.481 168.072 919.481 168.072H927.434V180.629H915.993ZM973.98 182.303C967.19 182.303 961.144 180.815 955.842 177.838C950.633 174.769 946.54 170.537 943.563 165.142C940.587 159.747 939.099 153.468 939.099 146.305C939.099 139.05 940.54 132.678 943.424 127.19C946.4 121.702 950.493 117.424 955.702 114.354C961.004 111.284 967.143 109.75 974.12 109.75C980.91 109.75 986.817 111.284 991.839 114.354C996.862 117.331 1000.77 121.33 1003.56 126.353C1006.35 131.376 1007.75 136.911 1007.75 142.957C1007.75 143.887 1007.7 144.91 1007.61 146.026C1007.61 147.05 1007.56 148.212 1007.47 149.515H953.609C954.074 156.212 956.26 161.328 960.167 164.862C964.167 168.304 968.771 170.025 973.98 170.025C978.166 170.025 981.654 169.095 984.445 167.234C987.328 165.281 989.468 162.677 990.863 159.421H1005.65C1003.79 165.932 1000.07 171.374 994.49 175.745C989.002 180.117 982.166 182.303 973.98 182.303ZM973.98 121.888C969.05 121.888 964.678 123.377 960.865 126.353C957.051 129.237 954.726 133.609 953.888 139.469H992.956C992.677 134.074 990.77 129.795 987.235 126.632C983.7 123.47 979.282 121.888 973.98 121.888ZM1054.62 182.303C1047.93 182.303 1042.02 180.722 1036.9 177.559C1031.79 174.397 1027.79 170.071 1024.9 164.583C1022.02 159.095 1020.58 152.863 1020.58 145.887C1020.58 138.911 1022.02 132.725 1024.9 127.33C1027.79 121.842 1031.79 117.563 1036.9 114.494C1042.11 111.331 1048.07 109.75 1054.76 109.75C1060.25 109.75 1065.04 110.819 1069.13 112.959C1073.32 115.098 1076.58 118.121 1078.9 122.028V80.1701H1093.69V180.629H1080.44L1078.9 169.885C1076.67 173.141 1073.6 176.025 1069.69 178.536C1065.79 181.047 1060.76 182.303 1054.62 182.303ZM1057.27 169.467C1063.6 169.467 1068.76 167.281 1072.76 162.909C1076.86 158.537 1078.9 152.91 1078.9 146.026C1078.9 139.05 1076.86 133.423 1072.76 129.144C1068.76 124.772 1063.6 122.586 1057.27 122.586C1050.95 122.586 1045.74 124.772 1041.65 129.144C1037.56 133.423 1035.51 139.05 1035.51 146.026C1035.51 150.584 1036.44 154.631 1038.3 158.165C1040.16 161.7 1042.72 164.49 1045.97 166.537C1049.32 168.49 1053.09 169.467 1057.27 169.467Z" fill="url(#paint2_linear_47_435)"/>
<defs>
<linearGradient id="paint0_linear_47_435" x1="1458.79" y1="49.6267" x2="-296.414" y2="58.484" gradientUnits="userSpaceOnUse">
<stop stop-color="#1E1E1E"/>
<stop offset="0.345663" stop-color="#222625"/>
<stop offset="1" stop-color="#2A3533"/>
</linearGradient>
<linearGradient id="paint1_linear_47_435" x1="1335.08" y1="-161.373" x2="683.428" y2="179.063" gradientUnits="userSpaceOnUse">
<stop stop-color="#3C4346"/>
<stop offset="1" stop-color="#979C9E" stop-opacity="0"/>
</linearGradient>
<linearGradient id="paint2_linear_47_435" x1="729.5" y1="63.6289" x2="729.5" y2="203.629" gradientUnits="userSpaceOnUse">
<stop stop-color="white"/>
<stop offset="1" stop-color="#43EDDB"/>
</linearGradient>
</defs>
</svg>
