<svg width="28" height="28" viewBox="0 0 28 28" fill="none" xmlns="http://www.w3.org/2000/svg">
<path d="M22.9343 24.5825C20.5839 26.5676 17.5348 27.8275 14.2157 27.8275C9.27669 27.8275 4.94114 25.1066 2.59082 21.1364L3.47073 17.0803L7.37098 16.3562C8.27619 19.2782 11.0077 21.4222 14.2157 21.4222C15.7719 21.4222 17.2172 20.9299 18.4082 20.0565L22.1561 20.6282L22.9343 24.5825Z" fill="#59C36A"/>
<path d="M22.9342 24.5826L22.156 20.6282L18.4081 20.0565C17.2171 20.93 15.7719 21.4223 14.2156 21.4223V27.8276C17.5347 27.8276 20.5838 26.5677 22.9342 24.5826Z" fill="#00A66C"/>
<path d="M7.06913 14.2759C7.06913 15.0064 7.18029 15.7051 7.37086 16.3563L2.5907 21.1365C1.39963 19.1355 0.663818 16.785 0.663818 14.2759C0.663818 11.7667 1.39963 9.41633 2.5907 7.41533L6.42717 8.07561L7.37086 12.1955C7.18029 12.8466 7.06913 13.5453 7.06913 14.2759Z" fill="#FFDA2D"/>
<path d="M27.7672 14.2759C27.7672 18.4049 25.8562 22.1052 22.9341 24.5826L18.408 20.0566C19.329 19.3895 20.1073 18.5002 20.6154 17.4521H14.2154C13.7707 17.4521 13.4214 17.1027 13.4214 16.658V11.8938C13.4214 11.449 13.7707 11.0997 14.2154 11.0997H26.7508C27.1319 11.0997 27.4654 11.3696 27.5289 11.7508C27.6878 12.5766 27.7672 13.4342 27.7672 14.2759Z" fill="#4086F4"/>
<path d="M20.6156 17.4521C20.1075 18.5002 19.3292 19.3895 18.4082 20.0566L22.9342 24.5826C25.8563 22.1052 27.7673 18.4049 27.7673 14.2759C27.7673 13.4342 27.6879 12.5766 27.529 11.7508C27.4656 11.3696 27.132 11.0997 26.7509 11.0997H14.2156V17.4521H20.6156Z" fill="#4175DF"/>
<path d="M23.1566 4.50902C23.1725 4.73136 23.0772 4.93786 22.9343 5.09662L19.5358 8.47925C19.2658 8.76511 18.8212 8.79687 18.5036 8.55866C17.2489 7.62174 15.7719 7.12943 14.2157 7.12943C11.0077 7.12943 8.27619 9.2733 7.37098 12.1954L2.59082 7.41528C4.94114 3.44505 9.27669 0.724121 14.2157 0.724121C17.376 0.724121 20.4569 1.88872 22.8708 3.92143C23.0455 4.06441 23.1407 4.28669 23.1566 4.50902Z" fill="#FF7F23"/>
<path d="M18.5034 8.55866C18.8211 8.79693 19.2657 8.76511 19.5356 8.47925L22.9342 5.09662C23.0771 4.93786 23.1724 4.73141 23.1565 4.50902C23.1406 4.28664 23.0453 4.06441 22.8706 3.92143C20.4568 1.88872 17.3759 0.724121 14.2156 0.724121V7.12943C15.7719 7.12943 17.2488 7.62174 18.5034 8.55866Z" fill="#F03800"/>
</svg>
